<?xml version="1.0" encoding="UTF-8" standalone="no"?>
<!-- Created with Inkscape (http://www.inkscape.org/) -->

<svg
   width="1000"
   height="1000"
   viewBox="0 0 1000 1000"
   version="1.1"
   id="svg1"
   xml:space="preserve"
   sodipodi:docname="inkscape_soldeer_logo_outline.svg"
   inkscape:version="1.3.2 (091e20e, 2023-11-25, custom)"
   inkscape:export-filename="soldeer_logo_outline_512.png"
   inkscape:export-xdpi="49.150002"
   inkscape:export-ydpi="49.150002"
   xmlns:inkscape="http://www.inkscape.org/namespaces/inkscape"
   xmlns:sodipodi="http://sodipodi.sourceforge.net/DTD/sodipodi-0.dtd"
   xmlns="http://www.w3.org/2000/svg"
   xmlns:svg="http://www.w3.org/2000/svg"><sodipodi:namedview
     id="namedview1"
     pagecolor="#505050"
     bordercolor="#eeeeee"
     borderopacity="1"
     inkscape:showpageshadow="0"
     inkscape:pageopacity="0"
     inkscape:pagecheckerboard="0"
     inkscape:deskcolor="#d1d1d1"
     inkscape:document-units="px"
     showguides="false"
     inkscape:zoom="0.70710678"
     inkscape:cx="349.31075"
     inkscape:cy="697.20729"
     inkscape:window-width="2205"
     inkscape:window-height="1328"
     inkscape:window-x="1924"
     inkscape:window-y="16"
     inkscape:window-maximized="0"
     inkscape:current-layer="layer4"><sodipodi:guide
       position="500,500"
       orientation="-1,0"
       id="guide1"
       inkscape:locked="false"
       inkscape:label=""
       inkscape:color="rgb(0,134,229)" /></sodipodi:namedview><defs
     id="defs1"><inkscape:path-effect
       effect="mirror_symmetry"
       start_point="500,0"
       end_point="500,1000"
       center_point="500,500"
       id="path-effect3"
       is_visible="true"
       lpeversion="1.2"
       lpesatellites=""
       mode="vertical"
       discard_orig_path="false"
       fuse_paths="false"
       oposite_fuse="false"
       split_items="false"
       split_open="false"
       link_styles="false" /><inkscape:path-effect
       effect="mirror_symmetry"
       start_point="500,0"
       end_point="500,1000"
       center_point="500,500"
       id="path-effect2"
       is_visible="true"
       lpeversion="1.2"
       lpesatellites=""
       mode="vertical"
       discard_orig_path="false"
       fuse_paths="false"
       oposite_fuse="false"
       split_items="false"
       split_open="false"
       link_styles="false" /></defs><g
     inkscape:groupmode="layer"
     id="layer3"
     inkscape:label="Outline"><path
       style="color:#000000;fill:#000000;stroke-linecap:round;stroke-linejoin:round;-inkscape-stroke:none"
       d="m 812.11523,31.628906 c -1.82126,-0.03506 -3.7209,0.439401 -5.83984,1.646485 -2.1179,1.20649 -4.57776,4.270568 -4.67773,7.644531 -0.0393,1.325432 0.01,0.841889 0.0293,1.277344 0.0195,0.435454 0.0479,1.012773 0.084,1.726562 0.0723,1.427578 0.17519,3.392474 0.30078,5.720703 0.25117,4.656458 0.58953,10.760823 0.92773,16.832031 0.0951,1.707443 0.0981,1.727234 0.19141,3.396485 -2.08485,-2.046215 -4.09816,-4.12818 -6.34766,-6.03125 -3.57382,-3.023467 -7.17612,-5.714849 -11.19726,-7.521485 -3.69361,-1.659481 -6.68956,-2.93393 -9.57227,-3.757812 -2.88236,-0.823784 -6.54453,-2.177584 -10.97656,1.160156 -2.21658,1.669772 -3.38124,4.404614 -3.65625,6.390625 -0.27501,1.986011 -0.0453,3.533272 0.26758,5.054688 0.62513,3.039924 1.78512,6.091585 3.41211,10 9.14092,21.958747 14.31196,42.400591 16.72265,61.142581 0.80353,6.24704 1.30037,12.30611 1.53321,18.16992 0.23285,5.86422 0.2028,11.53306 -0.0488,16.99805 -2.59224,56.30664 -27.40846,89.57314 -30.6543,93.7246 l -156.25195,49.7793 a 7.50075,7.50075 0 0 0 -4.85352,4.82422 L 572.26172,378.91797 500,472.01562 427.73828,378.91797 408.49219,319.80664 a 7.50075,7.50075 0 0 0 -4.85352,-4.82422 L 247.29492,265.17383 c -6.51169,-8.39271 -58.14693,-80.00354 -12.35547,-190.005861 1.62705,-3.908568 2.787,-6.960009 3.41211,-10 0.31256,-1.519996 0.54389,-3.066727 0.26953,-5.052735 -0.27435,-1.986007 -1.43973,-4.723053 -3.65625,-6.392578 -4.43303,-3.339048 -8.09354,-1.983891 -10.97656,-1.160156 -2.88302,0.823735 -5.88036,2.098222 -9.57422,3.757812 -6.52701,2.932485 -12.27117,8.215755 -17.54101,13.490235 0.0917,-1.6398 0.0941,-1.657972 0.1875,-3.333985 0.3382,-6.071207 0.67656,-12.175576 0.92773,-16.832031 0.12559,-2.328227 0.22852,-4.29313 0.30078,-5.720703 0.0361,-0.713786 0.0645,-1.291117 0.084,-1.726562 0.0195,-0.435445 0.0685,0.04765 0.0293,-1.277344 -0.10009,-3.378019 -2.55953,-6.437626 -4.67773,-7.644531 -2.1182,-1.206906 -4.00037,-1.449703 -5.81055,-1.433594 -3.62192,0.03224 -7.7594,1.242962 -10.47461,5.591797 -18.21251,29.170517 -26.61713,79.380876 -31.45312,123.117186 -4.83599,43.73632 -5.47461,80.73828 -5.47461,80.73828 a 7.50075,7.50075 0 0 0 1.55469,4.70508 l 103.16406,134.04492 a 7.50075,7.50075 0 0 0 2.49414,2.08594 l 116.0957,60.12109 13.94531,22.12891 -15.58984,3.8457 -86.83398,-70.98633 a 7.50075,7.50075 0 0 0 -11.80078,8.35547 c 0,0 16.95765,46.46956 67.43554,120.99219 -0.58652,1.61079 -1.48586,3.84671 -2.69336,6.61914 -2.58879,5.94393 -6.28079,13.80902 -10.02929,21.5957 -7.49701,15.57337 -15.23243,30.86915 -15.23243,30.86915 a 7.50075,7.50075 0 0 0 -0.61132,5.08398 l 13.74023,59.04883 9.58398,41.19336 a 7.50075,7.50075 0 0 0 4.39454,5.21289 L 402.61523,726.72656 493,961.62109 a 7.50075,7.50075 0 0 0 14,0 l 90.38477,-234.89453 72.48632,-30.52148 a 7.50075,7.50075 0 0 0 4.39453,-5.21289 L 697.58984,590.75 a 7.50075,7.50075 0 0 0 -0.61132,-5.08398 c 0,0 -7.73542,-15.29578 -15.23243,-30.86915 -3.7485,-7.78668 -7.4405,-15.65177 -10.02929,-21.5957 -1.2075,-2.77243 -2.10684,-5.00835 -2.69336,-6.61914 50.47798,-74.52276 67.43554,-120.99219 67.43554,-120.99219 a 7.50075,7.50075 0 0 0 -11.80078,-8.35547 l -86.83398,70.98633 -15.58985,-3.8457 13.94532,-22.12891 116.0957,-60.12109 a 7.50075,7.50075 0 0 0 2.49414,-2.08594 L 857.93359,245.99414 a 7.50075,7.50075 0 0 0 1.55469,-4.70508 c 0,0 -0.63836,-36.99988 -5.47461,-80.73633 -1.20908,-10.93437 -2.68201,-22.30026 -4.47656,-33.63867 -4.4865,-28.346541 -10.8768,-56.441343 -20.64844,-77.628904 -1.95408,-4.237013 -4.0512,-8.204679 -6.32812,-11.851562 -1.35758,-2.174379 -3.25884,-3.564815 -5.06836,-4.394532 -1.81139,-0.830584 -3.55569,-1.375092 -5.37696,-1.410156 z M 182.29687,61.787109 c -0.0764,1.37724 -0.13535,2.463582 -0.21289,3.855469 -0.6759,12.133448 -1.35546,24.140625 -1.35546,24.140625 a 7.50075,7.50075 0 0 0 13.31054,5.152344 c 0,0 4.26677,-5.250146 9.90625,-11.115235 5.63948,-5.865088 13.15736,-12.261958 16.61719,-13.816406 0.1604,-0.07206 0.19264,-0.06876 0.34961,-0.138672 C 169.86433,193.111 236.95312,276.35547 236.95312,276.35547 a 7.50075,7.50075 0 0 0 3.52149,2.38867 l 154.94531,49.36328 18.46094,56.69922 a 7.50075,7.50075 0 0 0 1.20703,2.27734 l 78.98828,101.76172 a 7.50075,7.50075 0 0 0 11.84766,0 l 78.98828,-101.76172 a 7.50075,7.50075 0 0 0 1.20703,-2.27734 l 18.46094,-56.69922 154.94531,-49.36328 a 7.50075,7.50075 0 0 0 3.52148,-2.38867 c 0,0 32.22453,-39.44415 35.20508,-104.18555 0.27104,-5.88644 0.30282,-11.98496 0.0527,-18.2832 -0.2501,-6.29862 -0.78213,-12.80063 -1.64258,-19.49024 -2.56394,-19.9334 -8.05992,-41.552506 -17.58008,-64.535152 0.15978,0.07116 0.19214,0.06919 0.35547,0.142578 1.73042,0.77745 4.66547,2.759154 7.6582,5.291016 2.99255,2.53169 6.13861,5.592089 8.95899,8.52539 5.63942,5.865228 9.90625,11.115235 9.90625,11.115235 a 7.50075,7.50075 0 0 0 13.31054,-5.152344 c 0,0 -0.67955,-12.007179 -1.35546,-24.140625 -0.0773,-1.38763 -0.13477,-2.470622 -0.21094,-3.84375 7.39775,18.368964 13.07732,42.576002 17.01562,67.458982 1.75065,11.06097 3.1952,22.20316 4.38282,32.94336 4.49289,40.63131 5.21404,73.14223 5.28906,76.79297 L 743.89844,369.57031 627.47266,429.86328 a 7.50075,7.50075 0 0 0 -2.89649,2.66211 l -20.57422,32.64453 a 7.50075,7.50075 0 0 0 4.54883,11.2793 l 29.32031,7.23242 a 7.50075,7.50075 0 0 0 6.54297,-1.47461 l 65.02735,-53.1582 c -10.25236,20.74253 -27.12977,51.54751 -54.63086,91.84765 -1.75946,2.5783 -1.40421,4.00011 -1.36914,4.92188 0.0351,0.92176 0.15631,1.50687 0.28125,2.07031 0.24988,1.12688 0.57032,2.10028 0.96679,3.2207 0.79295,2.24085 1.90706,4.94032 3.27539,8.08204 2.73666,6.28344 6.47509,14.23928 10.26563,22.11328 6.97944,14.49823 13.05183,26.49928 14.14258,28.66015 l -21.84961,93.90039 -71.90235,30.27539 a 7.50075,7.50075 0 0 0 -4.08984,4.21875 L 500,938.04297 415.46875,718.35937 a 7.50075,7.50075 0 0 0 -4.08984,-4.21875 l -71.90235,-30.27539 -8.71679,-37.46484 -13.13282,-56.43555 c 1.09075,-2.16087 7.16314,-14.16192 14.14258,-28.66015 3.79054,-7.874 7.52897,-15.82984 10.26563,-22.11328 1.36833,-3.14172 2.48244,-5.84119 3.27539,-8.08204 0.39647,-1.12042 0.71691,-2.09382 0.96679,-3.2207 0.12494,-0.56344 0.24618,-1.14854 0.28125,-2.07031 0.0351,-0.92152 0.38876,-2.34486 -1.36914,-4.92188 v -0.002 c -27.50047,-40.29938 -44.37861,-71.10339 -54.63086,-91.8457 l 65.02735,53.1582 a 7.50075,7.50075 0 0 0 6.54297,1.47461 l 29.32031,-7.23242 a 7.50075,7.50075 0 0 0 4.54883,-11.2793 l -20.57422,-32.64453 a 7.50075,7.50075 0 0 0 -2.89649,-2.66211 L 256.10156,369.57031 155.60742,238.99414 c 0.0751,-3.65084 0.7964,-36.16363 5.28906,-76.79492 3.8527,-34.84343 10.88821,-73.951407 21.40039,-100.412111 z"
       id="path14" /></g><g
     inkscape:groupmode="layer"
     id="layer4"
     inkscape:label="Logo shapes"><path
       d="M 518.76731,614.47962 333.03906,689.29297 408.46875,721.05273 500,958.92773 Z"
       style="fill:#171717;fill-opacity:1;stroke:none;stroke-width:5;stroke-dasharray:none;stroke-opacity:1"
       id="path13"
       sodipodi:nodetypes="ccccc" /><path
       d="m 500,620.81055 v 338.11718 l 91.53125,-237.875 75.42969,-31.75976 23.32422,-100.24219 c 0,0 -31.03305,-61.35779 -29.2793,-63.92773 51.63089,-75.65999 68.39844,-122.08203 68.39844,-122.08203 l -89.73633,73.35937 -29.32031,-7.23242 z"
       style="display:inline;stroke:none;stroke-width:5;stroke-dasharray:none;stroke-opacity:1"
       id="path9" /><path
       id="path11"
       style="fill:#414141;stroke:none;stroke-width:5;stroke-dasharray:none;stroke-opacity:1"
       d="m 270.5957,403.04102 c 0,0 16.76765,46.42218 68.39844,122.08203 1.75375,2.56992 -29.2793,63.92773 -29.2793,63.92773 l 13.74024,59.04883 9.58398,41.19336 L 500,627.82812 488.85547,605.49609 469.62891,579.07422 389.65234,469.16797 l -29.32031,7.23242 z" /><path
       id="path1"
       style="display:inline;fill:#ffffff;fill-opacity:1;stroke:none;stroke-width:5;stroke-linecap:butt;stroke-linejoin:miter;stroke-dasharray:none;stroke-opacity:1"
       d="m 187.98047,39.341797 c -1.55031,0.0138 -3.31023,0.671872 -4.17969,2.064453 -33.2366,53.234206 -35.79101,200.01367 -35.79101,200.01367 L 251.17383,375.46484 369.07812,436.52344 500,644.25781 630.92188,436.52344 748.82617,375.46484 851.99023,241.41992 c 0,0 -0.63821,-36.6937 -5.43164,-80.04297 -1.19835,-10.83731 -2.65707,-22.0913 -4.42968,-33.29101 -4.43153,-27.99929 -10.8285,-55.663704 -20.05079,-75.660159 -1.84445,-3.999291 -3.80161,-7.692393 -5.8789,-11.019531 -0.43473,-0.69629 -1.09179,-1.208509 -1.83399,-1.548828 -1.48438,-0.680638 -3.30974,-0.672399 -4.37695,-0.06445 -0.5336,0.303973 -0.87698,0.757315 -0.89453,1.349609 -0.0304,1.025358 2.68945,49.064453 2.68945,49.064453 0,0 -4.4426,-5.468907 -10.32226,-11.583984 -2.93983,-3.057539 -6.23819,-6.277017 -9.52149,-9.054688 -3.28329,-2.77767 -6.55195,-5.114205 -9.42773,-6.40625 -7.16016,-3.216948 -11.34444,-4.668425 -12.96289,-3.449218 -0.80923,0.609603 -0.97783,1.88763 -0.55469,3.945312 0.42314,2.057682 1.43678,4.895166 2.99024,8.626953 9.39024,22.557668 14.7423,43.663311 17.23828,63.068361 0.83199,6.46834 1.34642,12.74884 1.58789,18.83007 0.24147,6.08124 0.21051,11.96491 -0.0508,17.64063 -2.87427,62.43291 -33.51172,99.77344 -33.51172,99.77344 L 598.63867,322.12891 578.98828,382.48438 500,484.24609 421.01172,382.48438 401.36133,322.12891 242.75195,271.59766 c 0,0 -64.81764,-79.00494 -14.73633,-199.312504 6.21384,-14.92715 3.79299,-15.556944 -10.52734,-9.123047 -11.50314,5.168179 -29.27148,27.044922 -29.27148,27.044922 0,0 2.71982,-48.039095 2.68945,-49.064453 -0.0351,-1.184587 -1.37548,-1.814577 -2.92578,-1.800781 z" /></g></svg>
