<?xml version="1.0" encoding="UTF-8" standalone="no"?>
<!-- Created with Inkscape (http://www.inkscape.org/) -->

<svg
   width="1000"
   height="1000"
   viewBox="0 0 1000 1000"
   version="1.1"
   id="svg1"
   xml:space="preserve"
   sodipodi:docname="inkscape_soldeer_logo.svg"
   inkscape:version="1.3.2 (091e20e, 2023-11-25, custom)"
   inkscape:export-filename="soldeer_logo_512.png"
   inkscape:export-xdpi="49.152"
   inkscape:export-ydpi="49.152"
   xmlns:inkscape="http://www.inkscape.org/namespaces/inkscape"
   xmlns:sodipodi="http://sodipodi.sourceforge.net/DTD/sodipodi-0.dtd"
   xmlns="http://www.w3.org/2000/svg"
   xmlns:svg="http://www.w3.org/2000/svg"><sodipodi:namedview
     id="namedview1"
     pagecolor="#505050"
     bordercolor="#eeeeee"
     borderopacity="1"
     inkscape:showpageshadow="0"
     inkscape:pageopacity="0"
     inkscape:pagecheckerboard="0"
     inkscape:deskcolor="#d1d1d1"
     inkscape:document-units="px"
     showguides="false"
     inkscape:zoom="0.70710678"
     inkscape:cx="244.65895"
     inkscape:cy="584.0702"
     inkscape:window-width="2205"
     inkscape:window-height="1328"
     inkscape:window-x="1924"
     inkscape:window-y="16"
     inkscape:window-maximized="0"
     inkscape:current-layer="layer2"><sodipodi:guide
       position="500,500"
       orientation="-1,0"
       id="guide1"
       inkscape:locked="false"
       inkscape:label=""
       inkscape:color="rgb(0,134,229)" /></sodipodi:namedview><defs
     id="defs1"><inkscape:path-effect
       effect="mirror_symmetry"
       start_point="500,0"
       end_point="500,1000"
       center_point="500,500"
       id="path-effect3"
       is_visible="true"
       lpeversion="1.2"
       lpesatellites=""
       mode="vertical"
       discard_orig_path="false"
       fuse_paths="false"
       oposite_fuse="false"
       split_items="false"
       split_open="false"
       link_styles="false" /><inkscape:path-effect
       effect="mirror_symmetry"
       start_point="500,0"
       end_point="500,1000"
       center_point="500,500"
       id="path-effect2"
       is_visible="true"
       lpeversion="1.2"
       lpesatellites=""
       mode="vertical"
       discard_orig_path="false"
       fuse_paths="false"
       oposite_fuse="false"
       split_items="false"
       split_open="false"
       link_styles="false" /></defs><g
     inkscape:groupmode="layer"
     id="layer3"
     inkscape:label="face"><path
       d="M 518.76731,614.47962 333.03906,689.29297 408.46875,721.05273 500,958.92773 Z"
       style="fill:#171717;fill-opacity:1;stroke-width:1px"
       id="path13"
       sodipodi:nodetypes="ccccc"
       inkscape:label="dark-grey" /><path
       d="m 500,620.81055 v 338.11718 l 91.53125,-237.875 75.42969,-31.75976 23.32422,-100.24219 c 0,0 -31.03305,-61.35779 -29.2793,-63.92773 51.63089,-75.65999 68.39844,-122.08203 68.39844,-122.08203 l -89.73633,73.35937 -29.32031,-7.23242 z"
       style="display:inline;stroke-width:1px"
       id="path9"
       inkscape:label="black" /><path
       id="path11"
       style="fill:#414141;stroke-width:1px"
       d="M 270.5957 403.04102 C 270.5957 403.04102 287.36335 449.4632 338.99414 525.12305 C 340.74789 527.69297 309.71484 589.05078 309.71484 589.05078 L 323.45508 648.09961 L 333.03906 689.29297 L 500 627.82812 L 488.85547 605.49609 L 469.62891 579.07422 L 389.65234 469.16797 L 360.33203 476.40039 L 270.5957 403.04102 z "
       inkscape:label="light-grey" /></g><g
     inkscape:groupmode="layer"
     id="layer2"
     inkscape:label="horns"
     style="display:inline"><path
       id="path1"
       style="fill:#ffffff;fill-opacity:1;stroke:none;stroke-width:1px;stroke-linecap:butt;stroke-linejoin:miter;stroke-opacity:1"
       d="m 187.98047,39.341797 c -1.55031,0.0138 -3.31023,0.671872 -4.17969,2.064453 -33.2366,53.234206 -35.79101,200.01367 -35.79101,200.01367 L 251.17383,375.46484 369.07812,436.52344 500,644.25781 630.92188,436.52344 748.82617,375.46484 851.99023,241.41992 c 0,0 -0.63821,-36.6937 -5.43164,-80.04297 -1.19835,-10.83731 -2.65707,-22.0913 -4.42968,-33.29101 -4.43153,-27.99929 -10.8285,-55.663704 -20.05079,-75.660159 -1.84445,-3.999291 -3.80161,-7.692393 -5.8789,-11.019531 -0.43473,-0.69629 -1.09179,-1.208509 -1.83399,-1.548828 -1.48438,-0.680638 -3.30974,-0.672399 -4.37695,-0.06445 -0.5336,0.303973 -0.87698,0.757315 -0.89453,1.349609 -0.0304,1.025358 2.68945,49.064453 2.68945,49.064453 0,0 -4.4426,-5.468907 -10.32226,-11.583984 -2.93983,-3.057539 -6.23819,-6.277017 -9.52149,-9.054688 -3.28329,-2.77767 -6.55195,-5.114205 -9.42773,-6.40625 -7.16016,-3.216948 -11.34444,-4.668425 -12.96289,-3.449218 -0.80923,0.609603 -0.97783,1.88763 -0.55469,3.945312 0.42314,2.057682 1.43678,4.895166 2.99024,8.626953 9.39024,22.557668 14.7423,43.663311 17.23828,63.068361 0.83199,6.46834 1.34642,12.74884 1.58789,18.83007 0.24147,6.08124 0.21051,11.96491 -0.0508,17.64063 -2.87427,62.43291 -33.51172,99.77344 -33.51172,99.77344 L 598.63867,322.12891 578.98828,382.48438 500,484.24609 421.01172,382.48438 401.36133,322.12891 242.75195,271.59766 c 0,0 -64.81764,-79.00494 -14.73633,-199.312504 6.21384,-14.92715 3.79299,-15.556944 -10.52734,-9.123047 -11.50314,5.168179 -29.27148,27.044922 -29.27148,27.044922 0,0 2.71982,-48.039095 2.68945,-49.064453 -0.0351,-1.184587 -1.37548,-1.814577 -2.92578,-1.800781 z"
       inkscape:label="horns" /></g></svg>
