<svg xmlns="http://www.w3.org/2000/svg" xml:space="preserve" width="1000" height="1000"><path d="M812.115 31.629c-1.821-.035-3.72.44-5.84 1.646-2.118 1.207-4.577 4.271-4.677 7.645-.04 1.325.01.842.029 1.277.02.436.048 1.013.084 1.727.072 1.427.175 3.392.3 5.72.252 4.657.59 10.761.928 16.833.096 1.707.099 1.727.192 3.396-2.085-2.046-4.098-4.128-6.348-6.031-3.574-3.024-7.176-5.715-11.197-7.522-3.694-1.66-6.69-2.934-9.572-3.757-2.883-.824-6.545-2.178-10.977 1.16-2.216 1.67-3.381 4.404-3.656 6.39-.275 1.986-.045 3.534.267 5.055.626 3.04 1.786 6.092 3.413 10 9.14 21.959 14.312 42.4 16.722 61.143a206.64 206.64 0 0 1 1.533 18.17c.233 5.864.203 11.533-.048 16.998-2.593 56.306-27.409 89.573-30.655 93.724l-156.252 49.78a7.5 7.5 0 0 0-4.853 4.824l-19.246 59.111L500 472.016l-72.262-93.098-19.246-59.111a7.5 7.5 0 0 0-4.853-4.825l-156.344-49.808c-6.512-8.393-58.147-80.004-12.356-190.006 1.628-3.909 2.787-6.96 3.413-10 .312-1.52.543-3.067.27-5.053-.275-1.986-1.44-4.723-3.657-6.392-4.433-3.34-8.094-1.984-10.977-1.16-2.883.823-5.88 2.098-9.574 3.757-6.527 2.933-12.271 8.216-17.54 13.49.09-1.64.093-1.657.187-3.333.338-6.072.676-12.176.927-16.832.126-2.329.229-4.294.301-5.721.036-.714.065-1.291.084-1.727.02-.435.069.048.03-1.277-.1-3.378-2.56-6.438-4.678-7.645-2.119-1.207-4-1.45-5.81-1.433-3.623.032-7.76 1.243-10.476 5.592-18.212 29.17-26.617 79.38-31.453 123.117-4.836 43.736-5.474 80.738-5.474 80.738a7.5 7.5 0 0 0 1.554 4.705L245.23 380.04a7.5 7.5 0 0 0 2.495 2.086l116.095 60.121 13.946 22.129-15.59 3.846-86.834-70.987a7.5 7.5 0 0 0-11.801 8.356s16.958 46.47 67.436 120.992c-.587 1.61-1.486 3.847-2.694 6.62-2.589 5.943-6.28 13.808-10.03 21.595-7.496 15.573-15.231 30.869-15.231 30.869a7.5 7.5 0 0 0-.612 5.084l13.74 59.049 9.584 41.193a7.5 7.5 0 0 0 4.395 5.213l72.486 30.522L493 961.62a7.5 7.5 0 0 0 14 0l90.385-234.894 72.486-30.522a7.5 7.5 0 0 0 4.395-5.213L697.59 590.75a7.5 7.5 0 0 0-.611-5.084s-7.736-15.296-15.233-30.87c-3.748-7.786-7.44-15.65-10.03-21.595-1.207-2.772-2.106-5.008-2.693-6.619 50.478-74.523 67.436-120.992 67.436-120.992a7.5 7.5 0 0 0-11.8-8.356l-86.835 70.987-15.59-3.846 13.946-22.129 116.095-60.121a7.5 7.5 0 0 0 2.495-2.086l103.164-134.045a7.5 7.5 0 0 0 1.554-4.705s-.638-37-5.474-80.736c-1.21-10.935-2.682-22.3-4.477-33.639-4.486-28.346-10.877-56.441-20.648-77.629-1.954-4.237-4.052-8.205-6.328-11.851-1.358-2.175-3.26-3.565-5.069-4.395-1.811-.83-3.555-1.375-5.377-1.41zM182.297 61.787c-.077 1.377-.135 2.464-.213 3.856-.676 12.133-1.355 24.14-1.355 24.14a7.5 7.5 0 0 0 13.31 5.153s4.267-5.25 9.906-11.116c5.64-5.865 13.158-12.262 16.618-13.816.16-.072.192-.069.35-.139-51.049 123.246 16.04 206.49 16.04 206.49a7.5 7.5 0 0 0 3.522 2.39l154.945 49.362 18.46 56.7a7.5 7.5 0 0 0 1.208 2.277l78.988 101.762a7.5 7.5 0 0 0 11.848 0l78.988-101.762a7.5 7.5 0 0 0 1.207-2.277l18.461-56.7 154.945-49.363a7.5 7.5 0 0 0 3.522-2.389s32.224-39.444 35.205-104.185c.271-5.887.303-11.985.053-18.283-.25-6.299-.782-12.8-1.643-19.49-2.564-19.934-8.06-41.553-17.58-64.536.16.071.192.07.355.143 1.73.777 4.666 2.76 7.659 5.29 2.992 2.533 6.138 5.593 8.959 8.526 5.64 5.866 9.906 11.116 9.906 11.116a7.5 7.5 0 0 0 13.31-5.153s-.68-12.007-1.355-24.14l-.211-3.844c7.398 18.369 13.077 42.576 17.016 67.459 1.75 11.06 3.195 22.203 4.382 32.943 4.493 40.631 5.215 73.142 5.29 76.793L743.898 369.57l-116.425 60.293a7.5 7.5 0 0 0-2.897 2.662l-20.574 32.645a7.5 7.5 0 0 0 4.549 11.28l29.32 7.232a7.5 7.5 0 0 0 6.543-1.475l65.027-53.158c-10.252 20.742-27.13 51.547-54.63 91.847-1.76 2.579-1.405 4-1.37 4.922.036.922.157 1.507.282 2.07.25 1.128.57 2.1.966 3.221.793 2.241 1.908 4.94 3.276 8.082 2.736 6.284 6.475 14.24 10.265 22.114 6.98 14.498 13.052 26.499 14.143 28.66l-21.85 93.9-71.902 30.276a7.5 7.5 0 0 0-4.09 4.218L500 938.043l-84.531-219.684a7.5 7.5 0 0 0-4.09-4.218l-71.902-30.276-8.717-37.465-13.133-56.435c1.09-2.161 7.163-14.162 14.143-28.66 3.79-7.874 7.529-15.83 10.265-22.114 1.368-3.141 2.483-5.84 3.276-8.082.396-1.12.716-2.093.966-3.22.125-.564.247-1.149.282-2.07.035-.922.388-2.345-1.37-4.923v-.002c-27.5-40.299-44.378-71.103-54.63-91.845l65.027 53.158a7.5 7.5 0 0 0 6.543 1.475l29.32-7.233a7.5 7.5 0 0 0 4.55-11.28l-20.575-32.644a7.5 7.5 0 0 0-2.897-2.662L256.102 369.57 155.607 238.994c.076-3.65.797-36.163 5.29-76.795 3.852-34.843 10.888-73.951 21.4-100.412z" style="color:#000;fill:#000;stroke-linecap:round;stroke-linejoin:round;-inkscape-stroke:none"/><path d="M518.767 614.48 333.04 689.293l75.43 31.76L500 958.928Z" style="fill:#171717;fill-opacity:1;stroke:none;stroke-width:5;stroke-dasharray:none;stroke-opacity:1"/><path d="M500 620.81v338.118l91.531-237.875 75.43-31.76 23.324-100.242s-31.033-61.358-29.28-63.928c51.632-75.66 68.4-122.082 68.4-122.082l-89.737 73.36-29.32-7.233z" style="display:inline;stroke:none;stroke-width:5;stroke-dasharray:none;stroke-opacity:1"/><path d="M270.596 403.041s16.767 46.422 68.398 122.082c1.754 2.57-29.28 63.928-29.28 63.928l13.741 59.049 9.584 41.193L500 627.828l-11.145-22.332-19.226-26.422-79.977-109.906-29.32 7.232z" style="fill:#414141;stroke:none;stroke-width:5;stroke-dasharray:none;stroke-opacity:1"/><path d="M187.98 39.342c-1.55.014-3.31.672-4.18 2.064-33.236 53.234-35.79 200.014-35.79 200.014l103.164 134.045 117.904 61.058L500 644.258l130.922-207.735 117.904-61.058L851.99 241.42s-.638-36.694-5.431-80.043c-1.199-10.837-2.657-22.091-4.43-33.291-4.432-28-10.829-55.664-20.05-75.66-1.845-4-3.802-7.693-5.88-11.02-.435-.696-1.092-1.208-1.834-1.549-1.484-.68-3.31-.672-4.377-.064-.533.304-.877.757-.894 1.35-.03 1.025 2.69 49.064 2.69 49.064s-4.443-5.469-10.323-11.584c-2.94-3.057-6.238-6.277-9.522-9.055-3.283-2.777-6.551-5.114-9.427-6.406-7.16-3.217-11.345-4.668-12.963-3.45-.81.61-.978 1.889-.555 3.946.423 2.058 1.437 4.895 2.99 8.627 9.39 22.558 14.743 43.663 17.239 63.069a214.162 214.162 0 0 1 1.588 18.83c.241 6.08.21 11.965-.051 17.64-2.875 62.433-33.512 99.774-33.512 99.774l-158.61 50.53-19.65 60.356L500 484.246l-78.988-101.762-19.65-60.355-158.61-50.531s-64.818-79.005-14.736-199.313c6.213-14.927 3.793-15.557-10.528-9.123-11.503 5.168-29.271 27.045-29.271 27.045s2.72-48.04 2.69-49.064c-.036-1.185-1.376-1.815-2.927-1.801z" style="display:inline;fill:#ffffff;fill-opacity:1;stroke:none;stroke-width:5;stroke-linecap:butt;stroke-linejoin:miter;stroke-dasharray:none;stroke-opacity:1"/></svg>