<svg xmlns="http://www.w3.org/2000/svg" xml:space="preserve" width="1000" height="1000"><path d="M518.767 614.48 333.04 689.293l75.43 31.76L500 958.928Z" style="fill:#171717;fill-opacity:1;stroke-width:1px"/><path d="M500 620.81v338.118l91.531-237.875 75.43-31.76 23.324-100.242s-31.033-61.358-29.28-63.928c51.632-75.66 68.4-122.082 68.4-122.082l-89.737 73.36-29.32-7.233z" style="display:inline;stroke-width:1px"/><path d="M270.596 403.041s16.767 46.422 68.398 122.082c1.754 2.57-29.28 63.928-29.28 63.928l13.741 59.049 9.584 41.193L500 627.828l-11.145-22.332-19.226-26.422-79.977-109.906-29.32 7.232-89.736-73.359z" style="fill:#414141;stroke-width:1px"/><g style="display:inline"><path d="M187.98 39.342c-1.55.014-3.31.672-4.18 2.064-33.236 53.234-35.79 200.014-35.79 200.014l103.164 134.045 117.904 61.058L500 644.258l130.922-207.735 117.904-61.058L851.99 241.42s-.638-36.694-5.431-80.043c-1.199-10.837-2.657-22.091-4.43-33.291-4.432-28-10.829-55.664-20.05-75.66-1.845-4-3.802-7.693-5.88-11.02-.435-.696-1.092-1.208-1.834-1.549-1.484-.68-3.31-.672-4.377-.064-.533.304-.877.757-.894 1.35-.03 1.025 2.69 49.064 2.69 49.064s-4.443-5.469-10.323-11.584c-2.94-3.057-6.238-6.277-9.522-9.055-3.283-2.777-6.551-5.114-9.427-6.406-7.16-3.217-11.345-4.668-12.963-3.45-.81.61-.978 1.889-.555 3.946.423 2.058 1.437 4.895 2.99 8.627 9.39 22.558 14.743 43.663 17.239 63.069a214.162 214.162 0 0 1 1.588 18.83c.241 6.08.21 11.965-.051 17.64-2.875 62.433-33.512 99.774-33.512 99.774l-158.61 50.53-19.65 60.356L500 484.246l-78.988-101.762-19.65-60.355-158.61-50.531s-64.818-79.005-14.736-199.313c6.213-14.927 3.793-15.557-10.528-9.123-11.503 5.168-29.271 27.045-29.271 27.045s2.72-48.04 2.69-49.064c-.036-1.185-1.376-1.815-2.927-1.801z" style="fill:#ffffff;fill-opacity:1;stroke:none;stroke-width:1px;stroke-linecap:butt;stroke-linejoin:miter;stroke-opacity:1"/></g></svg>